<?xml version="1.0" encoding="utf-8"?>
<!-- Generator: Adobe Illustrator 15.0.0, SVG Export Plug-In . SVG Version: 6.00 Build 0)  -->
<!DOCTYPE svg PUBLIC "-//W3C//DTD SVG 1.1//EN" "http://www.w3.org/Graphics/SVG/1.1/DTD/svg11.dtd">
<svg version="1.1" id="Layer_1" xmlns="http://www.w3.org/2000/svg" xmlns:xlink="http://www.w3.org/1999/xlink" x="0px" y="0px"
	 width="128px" height="36px" viewBox="0 0 128 36" enable-background="new 0 0 128 36" xml:space="preserve">
<g>
	<path fill="#FFFFFF" d="M22.676,9.307l-8.079,17.57L6.141,9.401v18.091H1.039V1.323h6.897l6.661,13.983l6.661-13.983h6.897v26.169
		h-5.479V9.307z"/>
	<path fill="#FFFFFF" d="M89.961,35.994l3.26-8.219L84.953,7.323h5.811l5.291,14.026l5.527-14.026h5.008L95.299,35.994H89.961z"/>
	<path fill="#FFFFFF" d="M33.721,4.488c-0.52-0.52-0.803-1.134-0.803-1.842c0-0.756,0.236-1.37,0.756-1.89
		C34.193,0.237,34.855,0,35.563,0c0.709,0,1.323,0.237,1.843,0.756c0.519,0.52,0.803,1.134,0.803,1.89
		c0,0.708-0.236,1.322-0.755,1.842c-0.52,0.52-1.181,0.755-1.89,0.755S34.24,5.008,33.721,4.488z M33.136,7.137v20.308h4.688V7.137
		H33.136z"/>
	<path fill="#FFFFFF" d="M78.654,21.134c-1.062,1.2-2.598,1.97-4.321,1.97c-2.45,0-4.674-1.529-5.524-4.014h15.502
		c0.092-0.453,0.182-1.061,0.182-1.79c0-5.611-4.549-10.159-10.158-10.159S64.176,11.689,64.176,17.3
		c0,5.608,4.547,10.155,10.158,10.155c4.252,0,7.893-2.613,9.404-6.321H78.654z M74.333,11.495c2.536,0,4.674,1.644,5.463,3.915
		H68.871C69.659,13.138,71.798,11.495,74.333,11.495z"/>
	<path fill="#FFFFFF" d="M121.27,21.134c-1.062,1.2-2.599,1.97-4.322,1.97c-2.45,0-4.676-1.529-5.526-4.014h15.501
		c0.094-0.453,0.184-1.061,0.184-1.79c0-5.611-4.549-10.159-10.157-10.159c-5.61,0-10.159,4.548-10.159,10.159
		c0,5.608,4.549,10.155,10.159,10.155c4.251,0,7.891-2.613,9.405-6.321H121.27z M116.945,11.495c2.535,0,4.674,1.644,5.463,3.915
		h-10.926C112.271,13.138,114.409,11.495,116.945,11.495z"/>
	<path fill="#FFFFFF" d="M56.175,2.535V8.34c-1.421-0.756-3.036-1.198-4.759-1.198c-5.61,0-10.157,4.548-10.157,10.159
		c0,5.608,4.547,10.155,10.157,10.155c1.723,0,3.338-0.44,4.759-1.198v1.189h4.687V0.86L56.175,2.535z M45.61,17.3
		c0-3.202,2.604-5.806,5.806-5.806c1.417,0,2.708,0.518,3.715,1.364c0.427,0.412,1.042,1.214,1.042,2.438h0.001v3.968h-0.001
		c0,1.86-1.439,2.766-1.439,2.766l0.024,0.004c-0.945,0.673-2.096,1.07-3.343,1.07C48.215,23.104,45.61,20.501,45.61,17.3z"/>
	<rect x="61.292" y="31.648" fill="#FFFFFF" width="25.2" height="4.354"/>
</g>
<rect x="1.11" y="31.298" opacity="0.25" fill="#FFFFFF" width="5.056" height="4.304"/>
<rect x="11.042" y="31.298" opacity="0.25" fill="#FFFFFF" width="5.055" height="4.304"/>
<rect x="20.972" y="31.298" opacity="0.25" fill="#FFFFFF" width="5.056" height="4.304"/>
<rect x="30.903" y="31.298" opacity="0.25" fill="#FFFFFF" width="5.056" height="4.304"/>
<rect x="40.834" y="31.298" opacity="0.25" fill="#FFFFFF" width="5.056" height="4.304"/>
<rect x="50.765" y="31.298" opacity="0.25" fill="#FFFFFF" width="5.056" height="4.304"/>
<rect x="100.42" y="31.298" opacity="0.25" fill="#FFFFFF" width="5.056" height="4.304"/>
<rect x="110.351" y="31.298" opacity="0.25" fill="#FFFFFF" width="5.056" height="4.304"/>
<rect x="120.282" y="31.298" opacity="0.25" fill="#FFFFFF" width="5.056" height="4.304"/>
</svg>
